<?xml version="1.0" encoding="UTF-8"?>
<svg id="Layer_1" data-name="Layer 1" xmlns="http://www.w3.org/2000/svg" viewBox="0 0 406.44 475.19">
  <g id="ChxAAF.tif">
    <g>
      <path d="M45.38.51l311.45-.51c26.88,2.2,47,19.71,49.61,48.16v378.87c-2.36,28.33-23.06,46-49.61,48.16H49.61c-26.8-2.18-46.92-20-49.61-48.16L.07,46.6C3.14,21.57,21.2,3.5,45.38.51ZM43.75,15.15c-14.57,3.37-27.79,15.5-29.52,31.44l1.08,387.43c4.4,14.65,17.91,25.32,32.71,26.49h310.39c17.25-1.17,32.49-15.26,33.86-33.47l-1.14-385.86c-4.33-14.32-16.91-24.38-31.2-26.43l-316.19.4Z"/>
      <path d="M70.52,51.06l259.55-.46c12.15-.29,21.34,5.93,22.77,18.85,2.87,26-1.28,58.85-1.04,85.44-1.74,5.82-7.92,11.5-13.88,11.73l-273.37-.77c-6.33-2.86-9.9-9.7-10.8-16.56-2.05-15.62-2.02-64.08-.17-79.89,1.13-9.74,7.79-16.59,16.95-18.35ZM338.66,151.89v-84.08l-2.36-2.45H70.14l-2.36,2.45v84.08h270.89Z"/>
      <path d="M333.16,278.5c10.39.5,17.82,5.39,19.53,16.38-3.02,34.76,4.61,78.7,0,112.35-1.51,10.99-9.54,16.22-19.57,17.27-14.52,1.52-38.88,2.31-41.57-17.27,2.54-34.97-3.98-76.5.04-110.68.78-6.62,4.09-14.48,10.76-16.6,4.43-1.41,25.14-1.73,30.81-1.45ZM338.66,293.92c-4.98-2.05-33.07-3.88-33.07,2.45v111.01l2.36,2.45h28.35l2.36-2.45v-113.46Z"/>
      <path d="M109.77,254.19c-7.74,8.03-43.11,8.09-50.91,0-7.41-7.68-7.6-43.54-1.23-51.6,7.4-9.38,44.02-9.57,51.92-1.76,8.02,7.93,8.04,45.25.22,53.36ZM70.14,210.66l-2.36,2.45v29.39l2.36,2.45h28.35l2.36-2.45v-29.39l-2.36-2.45h-28.35Z"/>
      <path d="M296.67,201.41c6.64-7.2,34.67-7.08,43.61-4.68,15.22,4.08,13.8,29.48,12.61,42.56-1.02,11.24-5.34,18.61-16.74,20.2-11.5,1.61-33.6,2.49-40.87-7.96-6.19-8.9-6.13-41.97,1.38-50.12ZM307.95,210.66l-2.36,2.45v29.39l2.36,2.45h28.35l2.36-2.45v-29.39l-2.36-2.45h-28.35Z"/>
      <path d="M67.35,361.22c9.78-2.06,36.93-2.35,43.67,6.22,5.7,7.25,5.79,39.23,1.51,47.14-6.4,11.8-27.77,11.11-39.22,9.91-11.08-1.16-18.39-6.84-19.71-18.75-1.51-13.74-2.87-41.03,13.75-44.52ZM70.14,375.54l-2.36,2.45v29.39l2.36,2.45h28.35l2.36-2.45v-29.39l-2.36-2.45h-28.35Z"/>
      <path d="M226.42,196.34c7.17-1.51,32.07-1.29,38.09,2.21,12.01,6.98,7.83,18.99,7.86,29.24s4.51,19.34-6.25,27.66c-8.75,6.76-42.01,6.86-49.44-2.41-5.26-6.58-5.21-32.7-3.9-41.45,1.05-7.06,6.85-13.81,13.65-15.24ZM229.21,210.66l-2.36,2.45v29.39l2.36,2.45h28.35l2.36-2.45v-29.39l-2.36-2.45h-28.35Z"/>
      <path d="M147.68,196.35c10.91-2.04,38.49-2.87,44.31,8.8,3.03,6.07,2.83,38.8-.16,45.13-5.55,11.76-30.41,10.76-41.41,9.39-5.14-.64-12.31-4.39-14.72-9.22s-2.8-35.69-1.45-41.89c1.26-5.77,7.96-11.18,13.43-12.2ZM179.6,210.66h-31.5c.51,1.6-1.57,3.54-1.57,4.08v26.12c0,.29,3.66,4.08,3.94,4.08h26.77l2.36-2.45v-31.83Z"/>
      <path d="M146.07,361.19c6.01-1.4,33.93-1.1,38.84,1.5,11.65,6.17,10.3,32.67,8.9,44.72-1.16,9.99-7.24,15.63-16.71,16.96-13.34,1.87-41.12,3.06-43.21-15.33-.74-6.55-.91-29.74.37-35.61.97-4.46,7.53-11.24,11.81-12.24ZM179.6,375.54h-30.71l-2.36,2.45v27.75c0,.29,3.66,4.08,3.94,4.08h26.77l2.36-2.45v-31.83Z"/>
      <path d="M268.88,366.25c1.45,1.7,3.23,6.29,3.54,8.59.89,6.58,1.45,32.7-.67,38.29-5.94,15.69-46.21,15.19-55.02,4.74-5.51-6.54-4.94-29.29-4.12-38.3.91-10.01,4.76-17.04,15.17-18.56,9.16-1.34,35-1.89,41.1,5.25ZM226.85,375.54v31.83l2.36,2.45h26.77c.28,0,3.94-3.79,3.94-4.08v-27.75l-2.36-2.45h-30.71Z"/>
      <path d="M95.35,278.5c6.44.31,12.81,2.2,16.54,8.06,5.79,9.09,5.91,45.44-4.85,52.13-5.66,3.52-29.65,3.52-36.93,2.61-10.57-1.31-15.38-8.33-16.51-18.81-1.27-11.8-2.49-39.52,12.15-42.92,5.03-1.17,23.69-1.36,29.6-1.07ZM100.85,293.92c0-1.89-29.35-2.71-33.07,0v30.2l2.36,2.45h28.35l2.36-2.45v-30.2Z"/>
      <path d="M217.88,283c5.42-4.97,38.31-5.25,45.27-3.04,12.64,4,9.17,18.67,9.29,27.76.15,12.04,4.39,28.67-10.9,32.78-5.84,1.57-29.11,1.71-35.39.68-7.1-1.17-12.37-8.51-13.33-15.56-1.29-9.5-1.82-36.29,5.07-42.6ZM226.85,326.57h30.71l2.36-2.45v-27.75c0-.29-3.66-4.08-3.94-4.08h-26.77l-2.36,2.45v31.83Z"/>
      <path d="M137.57,335.86c-4.99-5.85-4.47-32.67-3.72-41.2.66-7.43,4.15-14.06,11.98-15.34,5.88-.96,33.54-.9,38.42.8,12.35,4.33,10.86,34.34,9.56,45.67-.78,6.81-6.7,14.26-13.51,15.38-8.84,1.45-36.73,1.73-42.73-5.31ZM179.6,326.57v-31.83l-2.36-2.45h-26.77c-.28,0-3.94,3.79-3.94,4.08v27.75l2.36,2.45h30.71Z"/>
    </g>
  </g>
</svg>