<?xml version="1.0" encoding="UTF-8"?>
<svg id="Layer_1" data-name="Layer 1" xmlns="http://www.w3.org/2000/svg" viewBox="0 0 460.92 461.74">
  <g id="ZyLfNK.tif">
    <g>
      <path d="M442.69,0c9.27,2.84,15.41,8.98,18.24,18.28v348.23c-1.39,7.16-11.28,18.28-18.72,18.28h-163.67l13.46,67.87c.6,4.33-1.6,6.77-4.82,9.09h-113.27c-3.23-2.32-5.42-4.76-4.82-9.09l13.46-67.87H18.87c-8.42,0-20.09-13.68-18.76-22.56L.16,20.69C1.22,10.09,8.66,3.08,18.39,0h424.3ZM15.51,21.64v286.18h430.06V21.64c0-3.19-5.77-6.88-9.07-6.3H24.58c-3.85-.17-8.39,2.45-9.07,6.3ZM445.57,323.22H15.51v39.92c0,3.19,5.77,6.88,9.07,6.3h411.92c3.3.58,9.07-3.11,9.07-6.3v-39.92ZM274.69,446.35l-12.41-61.15h-63.49l-12.41,61.15h88.32Z"/>
      <path d="M399.49,269.35h30.72v15.39H30.86v-15.39h30.72v-56.27c0-3.17,5.37-5.09,8.11-5.34,14.91-1.35,31.89,1.05,47.03.1,2.05-.25,6.3,3.71,6.3,5.23v56.27h30.72v-87.06c0-3.17,5.37-5.09,8.11-5.34,14.91-1.35,31.89,1.05,47.03.1,2.05-.25,6.3,3.71,6.3,5.23v87.06h30.72v-125.54c0-3.17,5.37-5.09,8.11-5.34,14.91-1.35,31.89,1.05,47.03.1,2.05-.25,6.3,3.71,6.3,5.23v125.54h30.72V105.33c0-3.17,5.37-5.09,8.11-5.34,14.91-1.35,31.89,1.05,47.03.1,2.05-.25,6.3,3.71,6.3,5.23v164.01ZM384.13,115.43h-30.72v153.91h30.72V115.43ZM291.97,153.91h-30.72v115.43h30.72v-115.43ZM199.82,192.39h-30.72v76.96h30.72v-76.96ZM107.66,223.17h-30.72v46.17h30.72v-46.17Z"/>
      <path d="M384.13,76.96h-15.36v-19.24c-8.84,5.28-36.82,40.57-43.89,42.14-1.5.33-2.87.34-4.37,0-6.81-1.52-28.26-30.19-36.56-34.37l-58.16,57.22c-2.6.9-5.49.66-7.69-1.06l-33.99-33.07-57.49,56.92c-2.49,1.24-4.68.93-7.17-.02-4.56-1.75-24.22-19.78-26.53-19.38l-49.09,48.97-10.59-10.56,54.87-55.67c2.58-1.61,5.04-1.38,7.77-.33,4.47,1.72,24.68,19.7,26.53,19.38l59.12-58.18c2.6-.9,5.49-.66,7.69,1.06l33.99,33.07,58.16-57.22c2.6-.9,5.49-.66,7.69,1.06l33.99,33.07,34.21-34.56h-19.2v-15.39h40.8c1.13,0,5.28,4.16,5.28,5.29v40.88Z"/>
      <rect x="222.86" y="338.61" width="15.36" height="15.39"/>
    </g>
  </g>
</svg>