<?xml version="1.0" encoding="UTF-8"?>
<svg id="Layer_1" data-name="Layer 1" xmlns="http://www.w3.org/2000/svg" viewBox="0 0 471.49 450.16">
  <g id="LfUJJV.tif">
    <g>
      <path d="M224.02.51c43.66-4.44,87.48,20.69,105.7,60.58,27.86,60.99-24.39,115.8-41.07,171.24-16.09,53.46,22.73,73.12,69.99,76.38,25.76,1.77,50.52-4.71,74.82,7.19,32.37,15.85,41.37,55.3,37,88.57-1.84,14.04-17.25,5.9-20.29,10.27-2.88,7.16,2.84,31.4-3.91,34.68l-418.85.75c-10.93-2.08-2.95-26.81-6.38-35.43-3.29-4.74-18.27,4.98-20.24-11.92-2.36-20.23.29-45.53,10.98-63.05,28.56-46.81,85.5-23.95,130.91-36.32,102.75-27.99-9.27-140.29-10.05-204.62-.58-47.5,45.12-93.62,91.39-98.32ZM174.5,308.72h123.82l-14.51-12.02c-66.09-70.69,100.96-177.49,8.1-258.91-37.26-32.67-90.45-27.45-122.18,9.71-67.3,78.81,64.73,164.07,26.57,237.19-5.14,9.85-14.18,16.37-21.8,24.03ZM454.3,397.15v-24.92c0-21.16-24.56-46.04-46-47.26l-340.8-.24c-23.18-1.16-50.58,24.71-50.58,47.5v24.92h437.39ZM433.39,413.23H37.82v20.9h395.58v-20.9Z"/>
      <path d="M241.65,34.18c2.54,2.55,3.05,10.11-.26,12.64-15.3,2.5-26.55,4.2-38.78,14.27-14.58,12-22.01,26.39-19.89,45.69.91,8.24,10.55,24.35-1.74,27.65-13.37,3.59-15.28-33.82-14.57-42.01,2.11-24.5,23.26-47.3,45.6-55.7,6.33-2.38,24.52-7.69,29.65-2.55Z"/>
    </g>
  </g>
</svg>