<?xml version="1.0" encoding="UTF-8"?>
<svg id="Layer_1" data-name="Layer 1" xmlns="http://www.w3.org/2000/svg" viewBox="0 0 475.8 438">
  <g id="VJp6Hk.tif">
    <path d="M229.42,68.93l-.12-10.86c-30.63-8.09-26.75-54.32,4.71-57.84,36.57-4.1,47,47.55,12.47,57.84l-.11,10.86h165.05c2.25,0,6.03,3.88,6.43,6.56.45,2.98-1.85,9.4-4.44,9.4h-22.44l59.32,121.68c4.32,3.84,25.9-4.54,25.49,11.4-1.51,58.73-54.91,103.65-112.96,95.02-45.29-6.73-82.81-47.7-83.62-93.97-.28-15.6,14.15-9.12,24.3-11.69l60.55-122.44h-117.68v213.41h14.46c.25,0,3.01,2.92,3.36,3.62,3.44,6.69-.6,45.61,1.12,47.25,3.62-.14,7.91-.06,10.45,3.01l17.63,33.72c6.11,1.37,21.5-1.89,25.85,1.58.58.46,2.91,3.71,2.91,4.07v30.42h62.33c.24,0,3.97,2.03,4.21,2.27,4.74,4.79.98,14.49-6.16,13.73l-290.27-.03c-6.61-.03-9.63-9.23-5.19-13.71.24-.24,3.97-2.27,4.21-2.27h62.33v-30.42c0-.36,2.33-3.61,2.91-4.07,4.35-3.47,19.74-.21,25.85-1.58l17.63-33.72c2.55-3.07,6.83-3.15,10.45-3.01,1.72-1.63-2.32-40.56,1.12-47.25.36-.69,3.12-3.62,3.36-3.62h14.46V84.89h-117.68l59.32,121.68c5.13,4.57,25.85-5.93,25.53,12.45-.82,46.28-38.31,87.24-83.62,93.97C54.91,321.61,1.52,276.7,0,217.97c-.42-16.48,21.15-6.24,25.87-12.03l58.95-121.05h-22.44c-2.59,0-4.89-6.42-4.44-9.4.4-2.68,4.18-6.56,6.43-6.56h165.05ZM235.15,16.3c-20.45,3.52-8.93,36.43,9.59,25.56,13.22-7.76,6.22-28.27-9.59-25.56ZM153.63,207.54l-55.83-111.67-54.86,111.67h110.7ZM432.87,207.54l-55.83-111.67-54.86,111.67h110.7ZM179.56,224.5H17c6.14,58.6,70.98,92.34,122.58,62.25,22.22-12.96,37.78-36.4,39.97-62.25ZM458.8,224.5h-162.56c4.24,46.41,47.98,79.7,93.97,72.53,35.76-5.58,65.46-36.24,68.58-72.53ZM249.37,314.25h-22.94v34.9h22.94v-34.9ZM306.21,402.01h-18.45c-1.55,0-4.83-2.62-5.93-4.05-6.3-8.17-10.28-23.11-16.63-31.24-.69-.88-1.06-1.62-2.38-1.61l-50.71.16c-1.9.63-10.64,17.49-10.63,20.79h29.42c6.11,0,6.34,15.96-1.99,15.96h-59.34v19.94h136.63v-19.94Z"/>
  </g>
</svg>